# xmcd
#
# Track frame offsets:
#   150
#   12284
#   30521
#   44696
#   57039
#   67692
#   80202
#   91564
#   104695
#   116457
#
# Disc length: 1721 seconds
#
# Revision: 0
# Processed by: cddbd v1.5PL3 Copyright (c) Steve Scherf et al.
# Submitted via: uFREEDB 1.6.0
#
DISCID=7506b70a
DTITLE=Martin, Dean - You're The Best Thing That Ever Happened To Me
DYEAR=1973
DGENRE=Country
TTITLE0=Free To Carry On
TTITLE1=You're The Best Thing That Ever Happened To Me
TTITLE2=I'm Confessin'
TTITLE3=Amor Mio
TTITLE4=You Better Move On
TTITLE5=Tie A Yellow Ribbon
TTITLE6=Baby Won't You Please Come Home
TTITLE7=I Don't Know Why
TTITLE8=Gimme A Little Kiss
TTITLE9=Get On With Your Livin'
EXTD=
EXTT0=
EXTT1=
EXTT2=
EXTT3=
EXTT4=
EXTT5=
EXTT6=
EXTT7=
EXTT8=
EXTT9=
PLAYORDER=
